<svg version="1.1" viewBox="0.0 0.0 833.3333333333334 192.98162729658793" fill="none" stroke="none" stroke-linecap="square" stroke-miterlimit="10" xmlns:xlink="http://www.w3.org/1999/xlink" xmlns="http://www.w3.org/2000/svg"><clipPath id="p.0"><path d="m0 0l833.3333 0l0 192.98163l-833.3333 0l0 -192.98163z" clip-rule="nonzero"/></clipPath><g clip-path="url(#p.0)"><path fill="#000000" fill-opacity="0.0" d="m0 0l833.3333 0l0 192.98163l-833.3333 0z" fill-rule="evenodd"/><path fill="#000000" fill-opacity="0.0" d="m-12.018373 -13.165707l856.59845 0l0 215.59056l-856.59845 0z" fill-rule="evenodd"/><path fill="#000000" d="m19.101164 72.63429l0 -42.000004l5.875 0l14.890627 29.34375l0 0l14.8125 -29.34375l5.9375 0l0 42.000004l-5.03125 0l0 -33.000004l0 0l-13.859375 27.125004l-3.78125 0l-13.796877 -27.000004l0 0l0 32.875004l-5.046875 0z" fill-rule="nonzero"/><path fill="#000000" d="m90.90111 72.63429l0 -42.000004l5.046875 0l0 42.000004l-5.046875 0z" fill-rule="nonzero"/><path fill="#000000" d="m136.06483 72.63429l0 -37.85938l-12.546875 0l0 -4.140625l30.125 0l0 4.140625l-12.546875 0l0 37.85938l-5.03125 0zm53.151215 0.71875q-4.609375 0 -8.03125 -1.671875q-3.421875 -1.6875 -5.28125 -4.6875q-1.859375 -3.0000038 -1.859375 -6.953129l5.28125 0q0 2.453125 1.140625 4.531254q1.140625 2.0625 3.328125 3.296875q2.1875 1.21875 5.421875 1.21875q2.828125 0 4.828125 -0.921875q2.015625 -0.9375 3.0625 -2.546875q1.046875 -1.6250038 1.046875 -3.6718788q0 -2.453125 -1.046875 -3.984375q-1.046875 -1.53125 -2.84375 -2.484375q-1.796875 -0.96875 -4.171875 -1.71875q-2.375 -0.75 -4.953125 -1.640625q-4.984375 -1.6875 -7.328125 -4.171875q-2.328125 -2.5 -2.328125 -6.515625q0 -3.421875 1.578125 -6.0q1.59375 -2.578125 4.5625 -4.046875q2.984375 -1.46875 7.0625 -1.46875q4.015625 0 6.984375 1.5q2.96875 1.5 4.640625 4.109375q1.6875 2.609375 1.6875 6.03125l-5.28125 0q0 -1.734375 -0.90625 -3.421875q-0.890625 -1.6875 -2.71875 -2.796875q-1.828125 -1.109375 -4.59375 -1.109375q-2.28125 -0.046875 -4.046875 0.765625q-1.765625 0.796875 -2.765625 2.296875q-0.984375 1.5 -0.984375 3.65625q0 2.046875 0.859375 3.3125q0.875 1.25 2.53125 2.125q1.65625 0.875 3.875 1.59375q2.21875 0.71875 4.921875 1.609375q3.046875 1.03125 5.421875 2.5q2.375 1.46875 3.71875 3.75q1.359375 2.28125 1.359375 5.8125q0 3.0000038 -1.59375 5.671879q-1.59375 2.671875 -4.71875 4.359375q-3.109375 1.671875 -7.859375 1.671875zm52.509964 0q-4.328125 0 -7.84375 -1.734375q-3.5 -1.75 -5.609375 -5.3125q-2.09375 -3.5781288 -2.09375 -9.156254l0 -26.515625l5.046875 0l0 26.578125q0 4.078125 1.34375 6.65625q1.34375 2.5781288 3.75 3.7812538q2.40625 1.203125 5.515625 1.203125q3.1875 0 5.515625 -1.203125q2.34375 -1.203125 3.65625 -3.7812538q1.328125 -2.578125 1.328125 -6.65625l0 -26.578125l5.046875 0l0 26.515625q0 5.578125 -2.109375 9.156254q-2.09375 3.5625 -5.640625 5.3125q-3.53125 1.734375 -7.90625 1.734375zm40.194946 -0.71875l0 -42.000004l12.359375 0q7.375 0 12.171875 2.546875q4.8125 2.546875 7.109375 7.265625q2.3125 4.703125 2.3125 11.3125q0 6.46875 -2.3125 11.15625q-2.296875 4.671879 -7.109375 7.203129q-4.796875 2.515625 -12.171875 2.515625l-12.359375 0zm5.046875 -4.203125l7.1875 0q6.125 0 9.75 -2.0q3.640625 -2.015625 5.1875 -5.765629q1.5625 -3.75 1.5625 -8.90625q0 -5.28125 -1.5625 -9.0625q-1.546875 -3.78125 -5.1875 -5.8125q-3.625 -2.046875 -9.75 -2.046875l-7.1875 0l0 33.593754zm70.911865 4.921875q-6.0625 0 -10.65625 -2.71875q-4.578125 -2.734375 -7.140625 -7.625004q-2.546875 -4.890625 -2.546875 -11.375q0 -6.421875 2.546875 -11.3125q2.5625 -4.890625 7.140625 -7.640625q4.59375 -2.765625 10.65625 -2.765625q6.1875 0 10.765625 2.765625q4.59375 2.75 7.109375 7.640625q2.53125 4.890625 2.53125 11.3125q0 6.484375 -2.53125 11.375q-2.515625 4.890629 -7.109375 7.625004q-4.578125 2.71875 -10.765625 2.71875zm0 -4.4375q4.5625 0 8.015625 -2.0625q3.453125 -2.078125 5.328125 -5.937504q1.890625 -3.875 1.890625 -9.28125q0 -5.40625 -1.890625 -9.265625q-1.875 -3.875 -5.328125 -5.90625q-3.453125 -2.046875 -8.015625 -2.046875q-4.5 0 -7.953125 2.046875q-3.453125 2.03125 -5.34375 5.90625q-1.875 3.859375 -1.875 9.265625q0 5.40625 1.875 9.28125q1.890625 3.8593788 5.34375 5.937504q3.453125 2.0625 7.953125 2.0625zm43.74121 3.71875l0 -42.000004l5.875 0l14.890625 29.34375l0 0l14.8125 -29.34375l5.9375 0l0 42.000004l-5.03125 0l0 -33.000004l0 0l-13.859375 27.125004l-3.78125 0l-13.796875 -27.000004l0 0l0 32.875004l-5.046875 0zm85.19867 0.71875q-6.0625 0 -10.65625 -2.71875q-4.578125 -2.734375 -7.140625 -7.625004q-2.546875 -4.890625 -2.546875 -11.375q0 -6.421875 2.546875 -11.3125q2.5625 -4.890625 7.140625 -7.640625q4.59375 -2.765625 10.65625 -2.765625q6.1875 0 10.765625 2.765625q4.59375 2.75 7.109375 7.640625q2.53125 4.890625 2.53125 11.3125q0 6.484375 -2.53125 11.375q-2.515625 4.890629 -7.109375 7.625004q-4.578125 2.71875 -10.765625 2.71875zm0 -4.4375q4.5625 0 8.015625 -2.0625q3.453125 -2.078125 5.328125 -5.937504q1.890625 -3.875 1.890625 -9.28125q0 -5.40625 -1.890625 -9.265625q-1.875 -3.875 -5.328125 -5.90625q-3.453125 -2.046875 -8.015625 -2.046875q-4.5 0 -7.953125 2.046875q-3.453125 2.03125 -5.34375 5.90625q-1.875 3.859375 -1.875 9.265625q0 5.40625 1.875 9.28125q1.890625 3.8593788 5.34375 5.937504q3.453125 2.0625 7.953125 2.0625zm43.74121 3.71875l0 -42.000004l25.984375 0l0 4.140625l-20.9375 0l0 14.640625l19.140625 0l0 4.078125l-19.140625 0l0 15.000004l20.9375 0l0 4.140625l-25.984375 0zm81.77991 0l0 -42.000004l5.046875 0l0 19.015625l17.515625 -19.015625l6.359375 0l-15.609375 16.734375l15.84375 25.265629l-6.109375 0l-13.328125 -21.359379l-4.671875 4.984375l0 16.375004l-5.046875 0zm48.296875 0l15.484375 -42.000004l5.34375 0l15.421875 42.000004l-5.34375 0l-12.78125 -35.70313l0 0l-12.84375 35.70313l-5.28125 0zm7.078125 -10.796879l1.4375 -4.078125l19.03125 0l1.4375 4.078125l-21.90625 0zm78.23743 10.796879l0 -42.000004l5.046875 0l0 42.000004l-5.046875 0zm-26.8125 0l0 -42.000004l5.046875 0l0 42.000004l-5.046875 0zm4.078125 -19.312504l0 -4.140625l24.0 0l0 4.140625l-24.0 0zm71.46057 20.031254q-6.0625 0 -10.65625 -2.71875q-4.578125 -2.734375 -7.140625 -7.625004q-2.546875 -4.890625 -2.546875 -11.375q0 -6.421875 2.546875 -11.3125q2.5625 -4.890625 7.140625 -7.640625q4.59375 -2.765625 10.65625 -2.765625q6.1875 0 10.765625 2.765625q4.59375 2.75 7.109375 7.640625q2.53125 4.890625 2.53125 11.3125q0 6.484375 -2.53125 11.375q-2.515625 4.890629 -7.109375 7.625004q-4.578125 2.71875 -10.765625 2.71875zm0 -4.4375q4.5625 0 8.015625 -2.0625q3.453125 -2.078125 5.328125 -5.937504q1.890625 -3.875 1.890625 -9.28125q0 -5.40625 -1.890625 -9.265625q-1.875 -3.875 -5.328125 -5.90625q-3.453125 -2.046875 -8.015625 -2.046875q-4.5 0 -7.953125 2.046875q-3.453125 2.03125 -5.34375 5.90625q-1.875 3.859375 -1.875 9.265625q0 5.40625 1.875 9.28125q1.890625 3.8593788 5.34375 5.937504q3.453125 2.0625 7.953125 2.0625z" fill-rule="nonzero"/><path fill="#000000" d="m180.85072 168.31427l0 -31.734375l19.625 0l0 3.125l-15.828125 0l0 11.0625l14.46875 0l0 3.09375l-14.46875 0l0 11.328125l15.828125 0l0 3.125l-19.625 0zm47.76143 0.546875q-3.484375 0 -6.078125 -1.265625q-2.578125 -1.28125 -3.984375 -3.546875q-1.390625 -2.265625 -1.390625 -5.25l3.984375 0q0 1.859375 0.859375 3.421875q0.859375 1.5625 2.515625 2.5q1.65625 0.921875 4.09375 0.921875q2.140625 0 3.65625 -0.703125q1.515625 -0.703125 2.3125 -1.921875q0.796875 -1.234375 0.796875 -2.765625q0 -1.859375 -0.796875 -3.015625q-0.796875 -1.15625 -2.15625 -1.875q-1.359375 -0.734375 -3.15625 -1.296875q-1.78125 -0.578125 -3.734375 -1.25q-3.765625 -1.265625 -5.53125 -3.140625q-1.765625 -1.890625 -1.765625 -4.9375q0 -2.578125 1.203125 -4.515625q1.203125 -1.953125 3.4375 -3.0625q2.25 -1.125 5.328125 -1.125q3.046875 0 5.28125 1.140625q2.25 1.140625 3.515625 3.109375q1.265625 1.96875 1.265625 4.546875l-3.984375 0q0 -1.3125 -0.6875 -2.578125q-0.671875 -1.265625 -2.0625 -2.109375q-1.375 -0.84375 -3.453125 -0.84375q-1.734375 -0.046875 -3.078125 0.578125q-1.328125 0.609375 -2.078125 1.75q-0.734375 1.125 -0.734375 2.75q0 1.546875 0.65625 2.5q0.65625 0.953125 1.890625 1.609375q1.25 0.65625 2.921875 1.203125q1.6875 0.546875 3.71875 1.21875q2.3125 0.765625 4.109375 1.875q1.796875 1.109375 2.8125 2.84375q1.015625 1.71875 1.015625 4.390625q0 2.265625 -1.203125 4.28125q-1.203125 2.015625 -3.5625 3.296875q-2.34375 1.265625 -5.9375 1.265625zm35.67575 -0.546875l0 -28.609375l-9.46875 0l0 -3.125l22.75 0l0 3.125l-9.46875 0l0 28.609375l-3.8125 0zm57.66342 0l0 -27.46875l-5.4375 1.359375l0 -2.71875l6.703125 -2.90625l2.59375 0l0 31.734375l-3.859375 0z" fill-rule="nonzero"/><path fill="#000000" d="m357.476 168.86115q-2.953125 0 -5.109375 -1.171875q-2.140625 -1.1875 -3.390625 -3.15625q-1.25 -1.96875 -1.515625 -4.28125l3.53125 0q0.453125 2.53125 2.171875 3.921875q1.734375 1.375 4.359375 1.375q2.40625 0 4.28125 -1.453125q1.875 -1.453125 3.0 -4.421875q1.140625 -2.96875 1.28125 -7.546875q0.046875 -0.125 0.046875 -0.265625q0 -0.140625 0 -0.265625q-0.71875 1.390625 -2.015625 2.625q-1.296875 1.21875 -3.09375 1.953125q-1.78125 0.71875 -4.046875 0.71875q-2.671875 0 -5.0625 -1.265625q-2.375 -1.28125 -3.84375 -3.5625q-1.46875 -2.296875 -1.46875 -5.375q0 -2.671875 1.3125 -5.109375q1.3125 -2.453125 3.75 -4.0q2.453125 -1.546875 5.8125 -1.546875q3.4375 0 5.765625 1.296875q2.34375 1.296875 3.765625 3.453125q1.4375 2.140625 2.09375 4.875q0.65625 2.71875 0.65625 5.515625q0 5.21875 -1.453125 9.21875q-1.4375 3.984375 -4.1875 6.234375q-2.75 2.234375 -6.640625 2.234375zm0.265625 -15.28125q2.09375 0 3.765625 -0.96875q1.6875 -0.984375 2.671875 -2.59375q1.0 -1.609375 1.0 -3.546875q0 -2.09375 -1.0 -3.671875q-0.984375 -1.59375 -2.671875 -2.5q-1.671875 -0.90625 -3.765625 -0.90625q-2.078125 0 -3.734375 0.9375q-1.65625 0.921875 -2.609375 2.515625q-0.953125 1.578125 -0.953125 3.671875q0 2.125 0.953125 3.71875q0.953125 1.578125 2.609375 2.46875q1.65625 0.875 3.734375 0.875zm40.662415 15.28125q-3.21875 0 -5.625 -1.171875q-2.390625 -1.1875 -3.78125 -3.21875q-1.375 -2.046875 -1.734375 -4.59375l3.703125 0q0.546875 2.546875 2.5 4.140625q1.953125 1.578125 4.984375 1.578125q2.265625 0 3.875 -1.0625q1.609375 -1.0625 2.484375 -2.859375q0.890625 -1.796875 0.890625 -4.015625q0 -2.359375 -0.890625 -4.09375q-0.875 -1.75 -2.484375 -2.75q-1.609375 -1.0 -3.6875 -1.0q-2.640625 0 -4.453125 1.140625q-1.8125 1.125 -2.71875 2.9375l-3.671875 0l2.6875 -17.3125l16.71875 0l0 3.3125l-13.78125 0l-1.8125 9.703125q1.140625 -1.265625 3.03125 -2.125q1.90625 -0.875 4.40625 -0.875q2.3125 0 4.203125 0.84375q1.90625 0.84375 3.265625 2.34375q1.375 1.484375 2.109375 3.484375q0.75 2.0 0.75 4.34375q0 2.265625 -0.734375 4.3125q-0.71875 2.046875 -2.140625 3.609375q-1.421875 1.5625 -3.453125 2.453125q-2.015625 0.875 -4.640625 0.875zm38.940308 0q-3.03125 0 -5.515625 -1.109375q-2.46875 -1.109375 -3.921875 -3.328125q-1.4375 -2.234375 -1.53125 -5.53125l3.859375 0q0.03125 1.8125 0.875 3.328125q0.84375 1.515625 2.421875 2.421875q1.59375 0.90625 3.8125 0.90625q2.21875 0 3.71875 -0.859375q1.5 -0.859375 2.265625 -2.28125q0.765625 -1.4375 0.765625 -3.203125q0 -2.21875 -1.0625 -3.59375q-1.0625 -1.390625 -2.859375 -2.0625q-1.78125 -0.6875 -3.921875 -0.6875l-2.34375 0l0 -3.21875l2.34375 0q3.140625 0 4.90625 -1.421875q1.765625 -1.4375 1.765625 -3.96875q0 -2.09375 -1.390625 -3.5q-1.375 -1.40625 -4.1875 -1.40625q-2.671875 0 -4.265625 1.546875q-1.578125 1.546875 -1.8125 3.9375l-3.84375 0q0.125 -2.578125 1.390625 -4.5625q1.28125 -2.0 3.453125 -3.109375q2.171875 -1.125 5.125 -1.125q3.078125 0 5.15625 1.09375q2.09375 1.09375 3.15625 2.90625q1.0625 1.8125 1.0625 3.984375q0 1.59375 -0.59375 3.046875q-0.578125 1.4375 -1.765625 2.53125q-1.171875 1.09375 -2.984375 1.5q1.859375 0.40625 3.328125 1.453125q1.484375 1.03125 2.34375 2.71875q0.859375 1.671875 0.859375 3.9375q0 2.578125 -1.203125 4.78125q-1.203125 2.203125 -3.5625 3.546875q-2.359375 1.328125 -5.84375 1.328125zm77.20032 -0.546875l0 -31.734375l3.796875 0l0 14.375l13.234375 -14.375l4.8125 0l-11.78125 12.65625l11.953125 19.078125l-4.609375 0l-10.0625 -16.140625l-3.546875 3.765625l0 12.375l-3.796875 0zm52.669556 0.546875q-4.578125 0 -8.046875 -2.0625q-3.46875 -2.0625 -5.40625 -5.75q-1.921875 -3.703125 -1.921875 -8.59375q0 -4.859375 1.921875 -8.546875q1.9375 -3.703125 5.40625 -5.78125q3.46875 -2.09375 8.046875 -2.09375q4.65625 0 8.125 2.09375q3.46875 2.078125 5.375 5.78125q1.90625 3.6875 1.90625 8.546875q0 4.890625 -1.90625 8.59375q-1.90625 3.6875 -5.375 5.75q-3.46875 2.0625 -8.125 2.0625zm0 -3.359375q3.4375 0 6.046875 -1.5625q2.609375 -1.5625 4.03125 -4.484375q1.4375 -2.921875 1.4375 -7.0q0 -4.078125 -1.4375 -7.0q-1.421875 -2.9375 -4.03125 -4.46875q-2.609375 -1.546875 -6.046875 -1.546875q-3.40625 0 -6.015625 1.546875q-2.609375 1.53125 -4.03125 4.46875q-1.421875 2.921875 -1.421875 7.0q0 4.078125 1.421875 7.0q1.421875 2.921875 4.03125 4.484375q2.609375 1.5625 6.015625 1.5625zm33.04596 2.8125l0 -31.734375l11.140625 0q3.359375 0 5.546875 1.078125q2.203125 1.0625 3.296875 2.90625q1.09375 1.828125 1.09375 4.09375q0 2.4375 -1.078125 4.078125q-1.0625 1.625 -2.765625 2.484375q-1.6875 0.859375 -3.59375 1.046875l0.625 -0.453125q2.046875 0.046875 3.765625 1.09375q1.71875 1.03125 2.734375 2.8125q1.03125 1.765625 1.03125 3.9375q0 2.40625 -1.1875 4.375q-1.171875 1.96875 -3.46875 3.125q-2.28125 1.15625 -5.640625 1.15625l-11.5 0zm3.796875 -3.171875l7.296875 0q3.21875 0 5.0 -1.515625q1.796875 -1.515625 1.796875 -4.234375q0 -2.6875 -1.84375 -4.296875q-1.828125 -1.609375 -5.03125 -1.609375l-7.21875 0l0 11.65625zm0 -14.6875l7.078125 0q3.078125 0 4.6875 -1.453125q1.609375 -1.453125 1.609375 -3.9375q0 -2.40625 -1.609375 -3.859375q-1.609375 -1.453125 -4.828125 -1.453125l-6.9375 0l0 10.703125zm35.59326 17.859375l0 -31.734375l19.625 0l0 3.125l-15.828125 0l0 11.0625l14.46875 0l0 3.09375l-14.46875 0l0 11.328125l15.828125 0l0 3.125l-19.625 0z" fill-rule="nonzero"/></g></svg>