<svg version="1.1" viewBox="0.0 0.0 523.6351706036745 118.44094488188976" fill="none" stroke="none" stroke-linecap="square" stroke-miterlimit="10" xmlns:xlink="http://www.w3.org/1999/xlink" xmlns="http://www.w3.org/2000/svg"><clipPath id="p.0"><path d="m0 0l523.6352 0l0 118.44095l-523.6352 0l0 -118.44095z" clip-rule="nonzero"/></clipPath><g clip-path="url(#p.0)"><path fill="#000000" fill-opacity="0.0" d="m0 0l523.6352 0l0 118.44095l-523.6352 0z" fill-rule="evenodd"/><path fill="#000000" fill-opacity="0.0" d="m0 0l523.6221 0l0 118.42519l-523.6221 0z" fill-rule="evenodd"/><path fill="#000000" d="m70.403885 58.836975l0 25.921875l-3.453125 0l0 -25.03125q-3.90625 4.21875 -8.203125 7.71875l-1.59375 -1.703125q9.9375 -8.953125 16.40625 -20.875l-14.265625 0l-0.65625 -2.6875l8.3125 0l0 -10.5625q5.796875 0.234375 5.796875 1.40625q0 0.75 -2.34375 1.8125l0 7.34375l3.328125 0l1.875 -2.40625q3.71875 3.296875 3.71875 4.328125q0 0.375 -0.4375 0.59375l-1.546875 0.8125q-3.296875 5.546875 -6.9375 10.15625l0 0.640625q10.15625 5.21875 10.15625 8.734375q0 1.015625 -1.140625 1.765625q-0.84375 0.5625 -1.34375 0.5625q-0.65625 0 -1.234375 -1.171875q-2.125 -4.09375 -6.4375 -7.359375zm26.484375 9.90625l0 16.03125l-3.5625 0l0 -16.03125l-7.71875 0l0 3.71875l-3.5625 0l0 -31.71875q1.234375 0.28125 4.09375 1.4375l7.1875 0l0 -10.453125q5.9375 0.140625 5.9375 1.625q0 0.78125 -2.375 1.65625l0 7.171875l7.96875 0l1.9375 -2.25q3.78125 3.03125 3.78125 3.890625q0 0.421875 -0.5625 0.8125l-1.3125 0.921875l0 26.6875l-3.5625 0l0 -3.5l-8.25 0zm0 -14.921875l8.25 0l0 -8.953125l-8.25 0l0 8.953125zm0 2.6875l0 9.546875l8.25 0l0 -9.546875l-8.25 0zm-3.5625 9.546875l0 -9.546875l-7.71875 0l0 9.546875l7.71875 0zm0 -12.234375l0 -8.953125l-7.71875 0l0 8.953125l7.71875 0zm101.9438 10.078125l-28.765625 0q-0.53125 5.5625 -2.21875 9.796875q-2.515625 6.265625 -8.34375 10.71875l-1.703125 -1.8125q4.671875 -4.296875 6.6875 -9.796875q2.125 -5.828125 2.125 -14.0l0 -13.109375q1.6875 0.453125 4.421875 1.59375l27.296875 0l2.09375 -2.40625q3.953125 3.078125 3.953125 4.015625q0 0.46875 -0.609375 0.859375l-1.375 0.84375l0 16.96875l-3.5625 0l0 -3.671875zm0 -2.96875l0 -10.828125l-28.546875 0l0 8.703125q0 1.234375 -0.03125 2.125l28.578125 0zm2.125 -23.84375l3.0 -3.28125q2.40625 1.84375 4.515625 4.359375l-0.84375 1.875l-47.140625 0l-0.734375 -2.953125l41.203125 0zm64.44382 16.390625q1.234375 0 2.359375 0.671875q2.203125 1.34375 2.203125 3.921875q0 1.796875 -1.234375 3.109375q-1.34375 1.484375 -3.390625 1.484375q-1.140625 0 -2.171875 -0.5625q-2.390625 -1.34375 -2.390625 -4.0625q0 -2.0625 1.609375 -3.4375q1.28125 -1.125 3.015625 -1.125zm85.8266 26.15625l0 -15.3125l-12.90625 0l-0.875 -2.6875l13.78125 0l0 -13.5l-14.5 0l-0.703125 -2.6875l27.875 0l2.921875 -3.390625q2.59375 2.25 4.1875 4.265625l-0.921875 1.8125l-15.1875 0l0 13.5l7.4375 0l2.890625 -3.28125q2.203125 1.875 4.109375 4.203125l-0.984375 1.765625l-13.453125 0l0 15.3125l10.484375 0l3.078125 -3.453125q2.609375 2.25 4.4375 4.484375l-0.984375 1.765625l-37.375 0l-0.8125 -2.796875l17.5 0zm-20.96875 -30.546875q3.53125 0.5625 3.53125 1.59375q0 0.765625 -2.40625 1.59375l0 32.5l-3.5625 0l0 -30.921875q-2.96875 5.421875 -6.9375 10.125l-1.703125 -1.515625q5.375 -7.65625 8.78125 -16.375q2.515625 -6.4375 4.390625 -14.375q5.5 1.3125 5.5 2.65625q0 0.78125 -2.421875 1.234375q-2.28125 7.15625 -5.171875 13.484375zm15.875 -16.984375q9.828125 5.203125 9.828125 9.03125q0 1.234375 -1.34375 2.015625q-0.953125 0.5625 -1.59375 0.5625q-0.875 0 -1.40625 -1.390625q-1.765625 -4.765625 -7.046875 -8.625l1.5625 -1.59375zm109.11566 49.0625l-26.703125 0l0 2.921875l-3.671875 0l0 -22.0625q1.875 0.53125 4.28125 1.53125l25.703125 0l2.09375 -2.125q3.859375 2.796875 3.859375 3.78125q0 0.453125 -0.578125 0.8125l-1.328125 0.8125l0 17.25l-3.65625 0l0 -2.921875zm0 -2.859375l0 -12.0625l-26.703125 0l0 12.0625l26.703125 0zm-15.203125 -23.78125l0 -9.71875l-22.359375 0l-0.84375 -2.90625l23.203125 0l0 -9.90625q6.265625 0.1875 6.265625 1.53125q0 0.8125 -2.59375 1.703125l0 6.671875l15.921875 0l3.046875 -3.453125q2.515625 1.96875 4.65625 4.484375l-0.984375 1.875l-22.640625 0l0 9.71875l12.484375 0l2.984375 -3.21875q2.40625 1.953125 4.3125 4.1875l-0.96875 1.875l-40.765625 0l-0.8125 -2.84375l19.09375 0z" fill-rule="nonzero"/></g></svg>