<svg width="1116" height="286" xmlns="http://www.w3.org/2000/svg" xmlns:xlink="http://www.w3.org/1999/xlink" overflow="hidden"><g transform="translate(-82 -217)"><path d="M113 280.12 143.178 273.74C157.01 267.644 173.775 258.146 184.673 255.452 197.666 253.042 209.821 260.839 211.498 265.234 217.785 271.33 220.719 287.208 208.983 293.304 195.151 304.22 179.224 307.906 163.716 314.995 143.737 323.926 126.692 312.018 117.611 291.603L113 280.12Z" fill-rule="evenodd"/><path d="M110.278 351.676C101.681 345.373 127.755 352.936 166.937 327.725 181.031 318.62 198.931 318.761 202.877 328.145L211.333 337.389C219.649 346.773 208.092 359.939 203.3 363.021L180.89 378.988C173.702 384.31 168.628 382.069 161.863 386.131 151.292 393.695 143.681 400.838 136.493 408.822 178.212 402.659 227.119 392.714 260.804 404.62 274.475 415.124 279.69 440.336 265.878 443.277L254.884 444.958C248.683 448.179 243.327 450.14 236.28 450.841 222.609 450.28 198.79 464.847 195.266 463.026 189.628 462.326 200.904 449.86 206.259 444.538 176.098 444.258 152.279 452.802 127.191 458.824 118.453 464.987 110.56 466.108 102.245 459.665L89.5599 450C81.5262 443.137 81.1034 432.492 87.0229 424.369 115.634 415.264 135.789 394.395 148.755 379.408 133.393 374.366 108.728 354.197 110.278 351.676Z" fill-rule="evenodd"/><path d="M289.757 318.072C312.519 316.534 331.887 340.154 335.139 348.679 340.936 357.903 331.887 370.482 325.808 372.578 315.912 374.954 301.774 366.848 299.936 359.58 298.098 352.173 300.926 343.927 296.967 333.585 292.019 327.575 287.071 319.05 289.757 318.072Z" fill-rule="evenodd"/><path d="M335.333 298C348.586 298 364.405 299.257 368.68 304.287L378.941 312.251C388.489 324.126 378.798 344.384 374.238 352.907 366.97 353.466 360.129 351.51 352.434 347.039L347.303 331.112 346.021 316.023C340.748 310.015 333.337 298.14 335.333 298Z" fill-rule="evenodd"/><path d="M416.44 321.898C415.458 317.247 433.834 308.368 452.63 311.75 456.698 312.878 464.553 319.079 462.73 324.012 456.558 339.656 447.019 356.992 439.164 373.482 374.359 437.328 323.44 451.703 323.02 445.784 321.617 442.401 395.119 382.784 417.282 335.428L416.44 321.898Z" fill-rule="evenodd"/><path d="M485.244 281.673C539.664 275.262 622.846 226.624 645.967 272.475 653.439 288.084 619.462 366.407 573.642 354.839 557.146 342.575 547.841 322.368 522.887 314.284L520.349 305.086C537.831 311.079 552.353 315.399 564.76 322.646 586.753 338.813 613.823 296.028 613.4 277.492 586.33 268.712 541.497 302.16 514.428 292.544 500.47 293.519 482.706 284.879 485.244 281.673Z" fill-rule="evenodd"/><path d="M544.798 289.516C551.92 289.796 545.217 313.139 537.257 320.548 535.581 326.838 536.419 332.289 536 338.16 543.681 345.988 553.875 342.493 556.529 340.257L564.07 324.322C567.701 308.526 559.601 299.441 558.623 287L544.798 289.516Z" fill-rule="evenodd"/><path d="M515.455 292.267 523.867 313.38C527.933 333.508 529.055 348.568 523.447 373.763 511.038 426.405 559.41 411.556 585.698 412.611 606.94 412.822 646.689 409.092 653.419 395.298 659.728 382.771 647.249 338.434 654.26 341.671 728.569 454.274 623.274 451.6 573.921 447.659 499.892 443.295 497.368 400.506 507.042 329.426 506.482 315.491 511.809 312.535 505.36 291L515.455 292.267Z" fill-rule="evenodd"/><path d="M745.289 237.225C781.755 264.431 745.57 257.559 836.523 218.294 856.939 215.069 885.801 238.768 853.841 268.778 873.693 268.918 904.105 269.479 912.13 276.771L921 287.288C917.903 292.617 912.693 306.36 880.029 294.44 843.422 282.24 790.343 310.847 745.289 318.42 724.592 327.815 691.224 325.011 687 312.53 687.422 310.006 696.292 312.53 700.939 312.53 738.249 304.817 771.336 287.429 801.466 280.557 812.307 279.996 853.137 228.11 844.126 230.915 832.3 222.501 806.112 238.908 803.578 252.371 800.762 272.424 777.672 278.594 759.65 270.881 752.328 263.87 742.051 242.134 745.289 237.225Z" fill-rule="evenodd"/><path d="M736.489 319.549C733.988 340.747 741.908 355.97 741.491 367.778 743.158 373.754 760.664 384.424 769 378.022 766.777 349.425 738.295 345.584 746.076 314L736.489 319.549Z" fill-rule="evenodd"/><path d="M772.022 318.984C774.824 323.803 780.989 329.897 787.994 329.613 802.985 318.134 834.367 316.858 850.619 318.134 849.358 327.204 836.329 349.455 827.923 349.171L821.198 350.022C823.439 342.085 827.362 330.322 812.792 326.212 802.424 328.338 784.912 331.739 775.385 336.416 776.365 346.337 791.216 342.227 798.501 343.219 802.284 347.329 774.964 360.368 779.588 374.682 785.612 379.5 807.188 379.642 825.401 371.28 836.189 380.351 852.02 371.139 862.808 361.501 888.446 338.117 894.751 314.732 876.678 305.379 863.649 281.427 770.341 316.15 772.022 318.984Z" fill-rule="evenodd"/><path d="M759.572 383.202C796.698 396.101 804.292 378.625 822.854 378.209 838.464 376.684 852.808 372.662 851.965 397.349 839.027 404.977 819.339 408.444 803.026 408.999 787.697 409.138 754.228 394.298 759.572 383.202Z" fill-rule="evenodd"/><path d="M799.99 321.801 797.457 339.539C803.788 379.379 800.834 418.374 802.522 457.792 802.522 469.195 771.713 467.928 755.676 448.923L760.318 443.01C758.489 430.762 769.322 422.738 773.823 412.602 754.128 420.767 734.433 428.932 714.738 433.296 709.533 438.505 733.026 462.297 748.501 455.258 765.242 467.787 783.249 478.204 798.723 492.845 809.415 498.476 826.437 482.991 827 457.792 824.749 439.491 823.764 422.879 824.046 405.423L822.358 379.66 821.513 350.52 817.293 327.714 811.385 318 799.99 321.801Z" fill-rule="evenodd"/><path d="M844.569 415.69C837.36 418.2 901.811 421.546 859.833 443.296 861.529 449.709 875.098 446.084 882.73 444.969 890.362 443.575 897.147 443.435 905.627 440.786 920.467 411.368 861.529 405.373 844.569 415.69Z" fill-rule="evenodd"/><path d="M985.461 233.361C983.064 239.139 995.897 234.348 999.423 237.589 1011.41 238.294 973.474 304.952 931.731 335.251 928.205 335.674 925.103 331.869 922 334.828 922.846 350.048 920.731 352.162 928.346 361.463L935.115 364C961.769 353.008 991.807 303.965 1013.81 267.606L1021.42 256.614C1034.82 227.724 991.948 226.738 985.461 233.361Z" fill-rule="evenodd"/><path d="M1012 267.895C1025.33 276.833 1038.24 297.686 1051.99 287.047 1052.55 268.463 1029.54 264.349 1018.31 253L1012 267.895Z" fill-rule="evenodd"/><path d="M998.646 288C1014.38 293.254 1030.54 292.118 1039.54 305.039 1041.64 309.441 1037.43 324.919 1009.18 314.411L986 308.447 998.646 288Z" fill-rule="evenodd"/><path d="M1008.18 313.008C1011.58 322.984 1008.18 332.116 1008.18 341.67 1006.9 358.39 1004.78 366.679 1003.08 379.184 1011.58 375.39 1024.33 372.861 1031.13 377.919 1034.95 379.184 1052.38 355.158 1063 343.778L1056.63 369.068C1049.4 373.845 1046.43 382.836 1041.33 389.721 1045.15 397.308 1037.08 405.738 1032.4 409.953 1025.74 420.209 1025.46 437.631 1022.63 440.722 1014.41 442.689 1005.34 433.697 996.701 430.185 981.543 421.333 990.61 409.953 994.576 403.63 984.518 412.341 977.86 436.648 961.852 417.118 955.902 404.473 983.101 379.605 982.251 372.861 985.368 363.307 992.735 347.009 990.326 331.554 989.618 322.703 992.31 315.116 988.201 305L1008.18 313.008Z" fill-rule="evenodd"/><path d="M991.154 314C987.061 329.659 971.959 335.923 962.362 346.884 954.882 355.568 959.257 379.626 981.839 374.216L1005.13 366.956C1019.38 366.387 1037.87 345.318 1039 337.062 1038.58 333.218 1018.68 330.229 1008.51 326.812L1005.55 335.78C1008.37 336.777 1015.85 335.211 1016.14 338.343 1011.62 345.034 986.779 354.287 973.794 353.717 972.101 351.297 981.416 339.909 991.578 329.801L991.154 314Z" fill-rule="evenodd"/><path d="M1077 303.999C1076.81 298.349 1064.72 316.994 1059.43 351.459 1056.78 369.916 1053.57 385.547 1051.49 406.829 1047.52 423.025 1069.06 440.352 1068.5 431.689 1069.63 396.471 1069.06 343.737 1077 303.999Z" fill-rule="evenodd"/><path d="M1072.25 328.622C1089.27 323.941 1107.99 305.217 1123.33 296.042 1144.85 281.438 1179.28 281.999 1189.58 302.783 1193.69 319.634 1193.88 370.189 1196.88 383.67 1198 391.16 1191.26 418.871 1188.45 436.471 1188.08 446.77 1169.18 452.012 1157.02 440.403 1146.54 423.365 1139.99 417.56 1131.19 406.139L1121.65 401.645 1120.53 391.534C1140.17 404.079 1154.77 414.939 1164.31 412.318 1169.74 392.283 1165.06 334.052 1162.07 305.03 1151.21 302.034 1134.75 313.643 1124.46 316.264L1101.44 326.375C1090.96 331.992 1083.29 339.294 1070 343.226L1072.25 328.622Z" fill-rule="evenodd"/><path d="M1076.18 290.855C1072.26 281.186 1133.82 257.866 1160.13 255.022 1196.51 254.075 1193.71 283.271 1165.17 281.186 1127.11 278.721 1087.37 299.577 1076.18 290.855Z" fill-rule="evenodd"/><path d="M1088.23 236.419C1084.08 232.676 1136.6 210.403 1126.77 267.3L1123.37 297.059C1122.99 331.497 1122.62 365.934 1122.24 400.372 1120.73 437.055 1122.05 500.69 1112.6 502 1104.48 500.316 1097.49 479.541 1098.44 475.049 1097.87 458.204 1104.67 438.552 1101.84 418.901 1102.21 373.795 1100.33 348.903 1102.97 285.829 1098.06 269.359 1110.15 257.942 1088.23 236.419Z" fill-rule="evenodd"/><path d="M1082.42 347.851C1078.08 345.972 1108.79 337.329 1121.98 332.068 1138.75 330.941 1142.52 343.906 1118.02 360.816 1133.66 360.252 1168.52 353.488 1151.37 376.035L1102.2 389C1086.18 388.624 1082.04 373.029 1091.46 355.743 1084.49 354.803 1085.43 350.482 1082.42 347.851Z" fill-rule="evenodd"/><path d="M1160.67 221.716C1145.48 214.735 1205.28 220.773 1193.43 244.924 1187.51 252.659 1169.37 247.943 1154 242.66 1177.33 228.886 1158.44 228.697 1160.67 221.716Z" fill-rule="evenodd"/></g></svg>